<svg xmlns="http://www.w3.org/2000/svg" viewBox="0 0 64 64">
      <defs>
        <linearGradient id="g" x1="0" y1="0" x2="1" y2="1">
          <stop offset="0" stop-color="#14b8a6"/>
          <stop offset="1" stop-color="#2563eb"/>
        </linearGradient>
      </defs>
      <path d="M28 6h8l2 7a20 20 0 0 1 6 3l7-3 4 7-6 5a20 20 0 0 1 0 8l6 5-4 7-7-3a20 20 0 0 1-6 3l-2 7h-8l-2-7a20 20 0 0 1-6-3l-7 3-4-7 6-5a20 20 0 0 1 0-8l-6-5 4-7 7 3a20 20 0 0 1 6-3l2-7z"
            fill="url(#g)" opacity=".95"/>
      <circle cx="32" cy="32" r="10" fill="#fff" opacity=".92"/>
      <circle cx="32" cy="32" r="5" fill="rgba(15,23,42,.18)"/>
    </svg>