<svg xmlns="http://www.w3.org/2000/svg" viewBox="0 0 48 48" fill="none">
  <path d="M12 26v-2a12 12 0 0 1 24 0v2" stroke="currentColor" stroke-width="3" stroke-linecap="round"/>
  <path d="M12 26a4 4 0 0 0-4 4v4a4 4 0 0 0 4 4h3V26h-3Z" stroke="currentColor" stroke-width="3" stroke-linejoin="round"/>
  <path d="M36 26h-3v12h3a4 4 0 0 0 4-4v-4a4 4 0 0 0-4-4Z" stroke="currentColor" stroke-width="3" stroke-linejoin="round"/>
  <path d="M33 38c0 2-2 4-5 4h-6" stroke="currentColor" stroke-width="3" stroke-linecap="round"/>
</svg>