<svg xmlns="http://www.w3.org/2000/svg" viewBox="0 0 1400 900">
  <defs>
    <linearGradient id="bg" x1="0" y1="0" x2="1" y2="1">
      <stop offset="0" stop-color="#d9f7f3"/>
      <stop offset="1" stop-color="#efe3ff"/>
    </linearGradient>
  </defs>

  <rect width="1400" height="900" rx="56" fill="white"/>
  <rect x="90" y="90" width="1220" height="720" rx="48" fill="url(#bg)" opacity=".55" stroke="rgba(15,23,42,.10)" stroke-width="2"/>

  <!-- price cards -->
  <g transform="translate(190 210)">
    <rect width="300" height="430" rx="34" fill="rgba(255,255,255,.75)" stroke="rgba(15,23,42,.12)" stroke-width="2"/>
    <rect x="40" y="48" width="160" height="20" rx="10" fill="rgba(15,23,42,.08)"/>
    <rect x="40" y="92" width="220" height="18" rx="9" fill="rgba(91,141,255,.18)"/>
    <rect x="40" y="140" width="200" height="14" rx="7" fill="rgba(15,23,42,.06)"/>
    <rect x="40" y="168" width="170" height="14" rx="7" fill="rgba(15,23,42,.06)"/>
    <rect x="40" y="196" width="190" height="14" rx="7" fill="rgba(15,23,42,.06)"/>
    <rect x="40" y="330" width="220" height="38" rx="16" fill="rgba(91,141,255,.16)"/>
  </g>

  <g transform="translate(550 180)">
    <rect width="300" height="500" rx="34" fill="rgba(255,255,255,.82)" stroke="rgba(15,23,42,.12)" stroke-width="2"/>
    <rect x="40" y="54" width="200" height="22" rx="11" fill="rgba(15,23,42,.08)"/>
    <rect x="40" y="100" width="240" height="20" rx="10" fill="rgba(87,214,200,.18)"/>
    <rect x="40" y="150" width="220" height="14" rx="7" fill="rgba(15,23,42,.06)"/>
    <rect x="40" y="178" width="200" height="14" rx="7" fill="rgba(15,23,42,.06)"/>
    <rect x="40" y="206" width="210" height="14" rx="7" fill="rgba(15,23,42,.06)"/>
    <rect x="40" y="404" width="220" height="44" rx="18" fill="rgba(87,214,200,.16)"/>
  </g>

  <g transform="translate(910 210)">
    <rect width="300" height="430" rx="34" fill="rgba(255,255,255,.75)" stroke="rgba(15,23,42,.12)" stroke-width="2"/>
    <rect x="40" y="48" width="190" height="20" rx="10" fill="rgba(15,23,42,.08)"/>
    <rect x="40" y="92" width="220" height="18" rx="9" fill="rgba(180,156,255,.20)"/>
    <rect x="40" y="140" width="210" height="14" rx="7" fill="rgba(15,23,42,.06)"/>
    <rect x="40" y="168" width="180" height="14" rx="7" fill="rgba(15,23,42,.06)"/>
    <rect x="40" y="196" width="200" height="14" rx="7" fill="rgba(15,23,42,.06)"/>
    <rect x="40" y="330" width="220" height="38" rx="16" fill="rgba(180,156,255,.14)"/>
  </g>
</svg>
