<svg xmlns="http://www.w3.org/2000/svg" viewBox="0 0 1800 900" preserveAspectRatio="none">
  <rect width="1800" height="900" fill="#ffffff"/>
  <g opacity="0.1">
    <rect x="0" y="0" width="13" height="900" fill="#cfe2ff"/><rect x="13" y="0" width="13" height="900" fill="#d9f7f3"/><rect x="26" y="0" width="15" height="900" fill="#efe3ff"/><rect x="41" y="0" width="14" height="900" fill="#d7ecff"/><rect x="57" y="0" width="15" height="900" fill="#cfe2ff"/><rect x="72" y="0" width="15" height="900" fill="#d9f7f3"/><rect x="87" y="0" width="16" height="900" fill="#efe3ff"/><rect x="103" y="0" width="15" height="900" fill="#d7ecff"/><rect x="121" y="0" width="15" height="900" fill="#cfe2ff"/><rect x="136" y="0" width="16" height="900" fill="#d9f7f3"/><rect x="152" y="0" width="15" height="900" fill="#efe3ff"/><rect x="167" y="0" width="14" height="900" fill="#d7ecff"/><rect x="181" y="0" width="16" height="900" fill="#cfe2ff"/><rect x="201" y="0" width="15" height="900" fill="#d9f7f3"/><rect x="216" y="0" width="13" height="900" fill="#efe3ff"/><rect x="229" y="0" width="15" height="900" fill="#d7ecff"/><rect x="244" y="0" width="14" height="900" fill="#cfe2ff"/><rect x="258" y="0" width="13" height="900" fill="#d9f7f3"/><rect x="271" y="0" width="12" height="900" fill="#efe3ff"/><rect x="283" y="0" width="14" height="900" fill="#d7ecff"/><rect x="297" y="0" width="15" height="900" fill="#cfe2ff"/><rect x="312" y="0" width="13" height="900" fill="#d9f7f3"/><rect x="325" y="0" width="16" height="900" fill="#efe3ff"/><rect x="341" y="0" width="16" height="900" fill="#d7ecff"/><rect x="357" y="0" width="12" height="900" fill="#cfe2ff"/><rect x="369" y="0" width="15" height="900" fill="#d9f7f3"/><rect x="384" y="0" width="12" height="900" fill="#efe3ff"/><rect x="396" y="0" width="12" height="900" fill="#d7ecff"/><rect x="408" y="0" width="12" height="900" fill="#cfe2ff"/><rect x="420" y="0" width="12" height="900" fill="#d9f7f3"/><rect x="436" y="0" width="16" height="900" fill="#efe3ff"/><rect x="454" y="0" width="13" height="900" fill="#d7ecff"/><rect x="467" y="0" width="16" height="900" fill="#cfe2ff"/><rect x="483" y="0" width="14" height="900" fill="#d9f7f3"/><rect x="499" y="0" width="14" height="900" fill="#efe3ff"/><rect x="513" y="0" width="16" height="900" fill="#d7ecff"/><rect x="529" y="0" width="14" height="900" fill="#cfe2ff"/><rect x="543" y="0" width="15" height="900" fill="#d9f7f3"/><rect x="558" y="0" width="15" height="900" fill="#efe3ff"/><rect x="573" y="0" width="15" height="900" fill="#d7ecff"/><rect x="588" y="0" width="14" height="900" fill="#cfe2ff"/><rect x="602" y="0" width="16" height="900" fill="#d9f7f3"/><rect x="618" y="0" width="13" height="900" fill="#efe3ff"/><rect x="631" y="0" width="13" height="900" fill="#d7ecff"/><rect x="644" y="0" width="13" height="900" fill="#cfe2ff"/><rect x="657" y="0" width="16" height="900" fill="#d9f7f3"/><rect x="673" y="0" width="13" height="900" fill="#efe3ff"/><rect x="688" y="0" width="16" height="900" fill="#d7ecff"/><rect x="709" y="0" width="13" height="900" fill="#cfe2ff"/><rect x="722" y="0" width="14" height="900" fill="#d9f7f3"/><rect x="736" y="0" width="15" height="900" fill="#efe3ff"/><rect x="751" y="0" width="16" height="900" fill="#d7ecff"/><rect x="767" y="0" width="14" height="900" fill="#cfe2ff"/><rect x="781" y="0" width="14" height="900" fill="#d9f7f3"/><rect x="795" y="0" width="16" height="900" fill="#efe3ff"/><rect x="811" y="0" width="14" height="900" fill="#d7ecff"/><rect x="825" y="0" width="15" height="900" fill="#cfe2ff"/><rect x="840" y="0" width="15" height="900" fill="#d9f7f3"/><rect x="855" y="0" width="15" height="900" fill="#efe3ff"/><rect x="870" y="0" width="15" height="900" fill="#d7ecff"/><rect x="885" y="0" width="14" height="900" fill="#cfe2ff"/><rect x="899" y="0" width="13" height="900" fill="#d9f7f3"/><rect x="912" y="0" width="15" height="900" fill="#efe3ff"/><rect x="927" y="0" width="16" height="900" fill="#d7ecff"/><rect x="943" y="0" width="14" height="900" fill="#cfe2ff"/><rect x="957" y="0" width="12" height="900" fill="#d9f7f3"/><rect x="969" y="0" width="12" height="900" fill="#efe3ff"/><rect x="981" y="0" width="12" height="900" fill="#d7ecff"/><rect x="993" y="0" width="15" height="900" fill="#cfe2ff"/><rect x="1008" y="0" width="14" height="900" fill="#d9f7f3"/><rect x="1022" y="0" width="13" height="900" fill="#efe3ff"/><rect x="1035" y="0" width="12" height="900" fill="#d7ecff"/><rect x="1047" y="0" width="15" height="900" fill="#cfe2ff"/><rect x="1066" y="0" width="12" height="900" fill="#d9f7f3"/><rect x="1078" y="0" width="16" height="900" fill="#efe3ff"/><rect x="1094" y="0" width="13" height="900" fill="#d7ecff"/><rect x="1107" y="0" width="14" height="900" fill="#cfe2ff"/><rect x="1121" y="0" width="15" height="900" fill="#d9f7f3"/><rect x="1136" y="0" width="15" height="900" fill="#efe3ff"/><rect x="1151" y="0" width="15" height="900" fill="#d7ecff"/><rect x="1166" y="0" width="12" height="900" fill="#cfe2ff"/><rect x="1178" y="0" width="12" height="900" fill="#d9f7f3"/><rect x="1193" y="0" width="15" height="900" fill="#efe3ff"/><rect x="1208" y="0" width="14" height="900" fill="#d7ecff"/><rect x="1222" y="0" width="15" height="900" fill="#cfe2ff"/><rect x="1237" y="0" width="14" height="900" fill="#d9f7f3"/><rect x="1251" y="0" width="15" height="900" fill="#efe3ff"/><rect x="1266" y="0" width="15" height="900" fill="#d7ecff"/><rect x="1281" y="0" width="15" height="900" fill="#cfe2ff"/><rect x="1296" y="0" width="14" height="900" fill="#d9f7f3"/><rect x="1310" y="0" width="14" height="900" fill="#efe3ff"/><rect x="1324" y="0" width="15" height="900" fill="#d7ecff"/><rect x="1339" y="0" width="12" height="900" fill="#cfe2ff"/><rect x="1351" y="0" width="14" height="900" fill="#d9f7f3"/><rect x="1365" y="0" width="13" height="900" fill="#efe3ff"/><rect x="1378" y="0" width="15" height="900" fill="#d7ecff"/><rect x="1393" y="0" width="12" height="900" fill="#cfe2ff"/><rect x="1405" y="0" width="12" height="900" fill="#d9f7f3"/><rect x="1417" y="0" width="16" height="900" fill="#efe3ff"/><rect x="1436" y="0" width="15" height="900" fill="#d7ecff"/><rect x="1451" y="0" width="16" height="900" fill="#cfe2ff"/><rect x="1467" y="0" width="12" height="900" fill="#d9f7f3"/><rect x="1479" y="0" width="16" height="900" fill="#efe3ff"/><rect x="1495" y="0" width="13" height="900" fill="#d7ecff"/><rect x="1508" y="0" width="16" height="900" fill="#cfe2ff"/><rect x="1524" y="0" width="15" height="900" fill="#d9f7f3"/><rect x="1539" y="0" width="13" height="900" fill="#efe3ff"/><rect x="1552" y="0" width="14" height="900" fill="#d7ecff"/><rect x="1566" y="0" width="13" height="900" fill="#cfe2ff"/><rect x="1579" y="0" width="15" height="900" fill="#d9f7f3"/><rect x="1598" y="0" width="13" height="900" fill="#efe3ff"/><rect x="1611" y="0" width="15" height="900" fill="#d7ecff"/><rect x="1626" y="0" width="15" height="900" fill="#cfe2ff"/><rect x="1641" y="0" width="14" height="900" fill="#d9f7f3"/><rect x="1655" y="0" width="15" height="900" fill="#efe3ff"/><rect x="1672" y="0" width="14" height="900" fill="#d7ecff"/><rect x="1686" y="0" width="13" height="900" fill="#cfe2ff"/><rect x="1699" y="0" width="13" height="900" fill="#d9f7f3"/><rect x="1715" y="0" width="16" height="900" fill="#efe3ff"/><rect x="1731" y="0" width="12" height="900" fill="#d7ecff"/><rect x="1743" y="0" width="16" height="900" fill="#cfe2ff"/><rect x="1759" y="0" width="12" height="900" fill="#d9f7f3"/><rect x="1771" y="0" width="12" height="900" fill="#efe3ff"/><rect x="1783" y="0" width="13" height="900" fill="#d7ecff"/><rect x="1796" y="0" width="16" height="900" fill="#cfe2ff"/>
  </g>
</svg>
