<svg xmlns="http://www.w3.org/2000/svg" viewBox="0 0 1800 220" preserveAspectRatio="none">
  <rect width="1800" height="220" fill="#ffffff"/>
  <g opacity="0.16">
    <rect x="0" y="0" width="12" height="220" fill="#cfe2ff"/><rect x="12" y="0" width="12" height="220" fill="#d9f7f3"/><rect x="24" y="0" width="12" height="220" fill="#efe3ff"/><rect x="36" y="0" width="12" height="220" fill="#cfe2ff"/><rect x="48" y="0" width="12" height="220" fill="#d9f7f3"/><rect x="60" y="0" width="12" height="220" fill="#efe3ff"/><rect x="72" y="0" width="12" height="220" fill="#cfe2ff"/><rect x="84" y="0" width="12" height="220" fill="#d9f7f3"/><rect x="96" y="0" width="12" height="220" fill="#efe3ff"/><rect x="108" y="0" width="12" height="220" fill="#cfe2ff"/><rect x="120" y="0" width="12" height="220" fill="#d9f7f3"/><rect x="132" y="0" width="12" height="220" fill="#efe3ff"/><rect x="144" y="0" width="12" height="220" fill="#cfe2ff"/><rect x="156" y="0" width="12" height="220" fill="#d9f7f3"/><rect x="168" y="0" width="12" height="220" fill="#efe3ff"/><rect x="180" y="0" width="12" height="220" fill="#cfe2ff"/><rect x="192" y="0" width="12" height="220" fill="#d9f7f3"/><rect x="204" y="0" width="12" height="220" fill="#efe3ff"/><rect x="216" y="0" width="12" height="220" fill="#cfe2ff"/><rect x="228" y="0" width="12" height="220" fill="#d9f7f3"/><rect x="240" y="0" width="12" height="220" fill="#efe3ff"/><rect x="252" y="0" width="12" height="220" fill="#cfe2ff"/><rect x="264" y="0" width="12" height="220" fill="#d9f7f3"/><rect x="276" y="0" width="12" height="220" fill="#efe3ff"/><rect x="288" y="0" width="12" height="220" fill="#cfe2ff"/><rect x="300" y="0" width="12" height="220" fill="#d9f7f3"/><rect x="312" y="0" width="12" height="220" fill="#efe3ff"/><rect x="324" y="0" width="12" height="220" fill="#cfe2ff"/><rect x="336" y="0" width="12" height="220" fill="#d9f7f3"/><rect x="348" y="0" width="12" height="220" fill="#efe3ff"/><rect x="360" y="0" width="12" height="220" fill="#cfe2ff"/><rect x="372" y="0" width="12" height="220" fill="#d9f7f3"/><rect x="384" y="0" width="12" height="220" fill="#efe3ff"/><rect x="396" y="0" width="12" height="220" fill="#cfe2ff"/><rect x="408" y="0" width="12" height="220" fill="#d9f7f3"/><rect x="420" y="0" width="12" height="220" fill="#efe3ff"/><rect x="432" y="0" width="12" height="220" fill="#cfe2ff"/><rect x="444" y="0" width="12" height="220" fill="#d9f7f3"/><rect x="456" y="0" width="12" height="220" fill="#efe3ff"/><rect x="468" y="0" width="12" height="220" fill="#cfe2ff"/><rect x="480" y="0" width="12" height="220" fill="#d9f7f3"/><rect x="492" y="0" width="12" height="220" fill="#efe3ff"/><rect x="504" y="0" width="12" height="220" fill="#cfe2ff"/><rect x="516" y="0" width="12" height="220" fill="#d9f7f3"/><rect x="528" y="0" width="12" height="220" fill="#efe3ff"/><rect x="540" y="0" width="12" height="220" fill="#cfe2ff"/><rect x="552" y="0" width="12" height="220" fill="#d9f7f3"/><rect x="564" y="0" width="12" height="220" fill="#efe3ff"/><rect x="576" y="0" width="12" height="220" fill="#cfe2ff"/><rect x="588" y="0" width="12" height="220" fill="#d9f7f3"/><rect x="600" y="0" width="12" height="220" fill="#efe3ff"/><rect x="612" y="0" width="12" height="220" fill="#cfe2ff"/><rect x="624" y="0" width="12" height="220" fill="#d9f7f3"/><rect x="636" y="0" width="12" height="220" fill="#efe3ff"/><rect x="648" y="0" width="12" height="220" fill="#cfe2ff"/><rect x="660" y="0" width="12" height="220" fill="#d9f7f3"/><rect x="672" y="0" width="12" height="220" fill="#efe3ff"/><rect x="684" y="0" width="12" height="220" fill="#cfe2ff"/><rect x="696" y="0" width="12" height="220" fill="#d9f7f3"/><rect x="708" y="0" width="12" height="220" fill="#efe3ff"/><rect x="720" y="0" width="12" height="220" fill="#cfe2ff"/><rect x="732" y="0" width="12" height="220" fill="#d9f7f3"/><rect x="744" y="0" width="12" height="220" fill="#efe3ff"/><rect x="756" y="0" width="12" height="220" fill="#cfe2ff"/><rect x="768" y="0" width="12" height="220" fill="#d9f7f3"/><rect x="780" y="0" width="12" height="220" fill="#efe3ff"/><rect x="792" y="0" width="12" height="220" fill="#cfe2ff"/><rect x="804" y="0" width="12" height="220" fill="#d9f7f3"/><rect x="816" y="0" width="12" height="220" fill="#efe3ff"/><rect x="828" y="0" width="12" height="220" fill="#cfe2ff"/><rect x="840" y="0" width="12" height="220" fill="#d9f7f3"/><rect x="852" y="0" width="12" height="220" fill="#efe3ff"/><rect x="864" y="0" width="12" height="220" fill="#cfe2ff"/><rect x="876" y="0" width="12" height="220" fill="#d9f7f3"/><rect x="888" y="0" width="12" height="220" fill="#efe3ff"/><rect x="900" y="0" width="12" height="220" fill="#cfe2ff"/><rect x="912" y="0" width="12" height="220" fill="#d9f7f3"/><rect x="924" y="0" width="12" height="220" fill="#efe3ff"/><rect x="936" y="0" width="12" height="220" fill="#cfe2ff"/><rect x="948" y="0" width="12" height="220" fill="#d9f7f3"/><rect x="960" y="0" width="12" height="220" fill="#efe3ff"/><rect x="972" y="0" width="12" height="220" fill="#cfe2ff"/><rect x="984" y="0" width="12" height="220" fill="#d9f7f3"/><rect x="996" y="0" width="12" height="220" fill="#efe3ff"/><rect x="1008" y="0" width="12" height="220" fill="#cfe2ff"/><rect x="1020" y="0" width="12" height="220" fill="#d9f7f3"/><rect x="1032" y="0" width="12" height="220" fill="#efe3ff"/><rect x="1044" y="0" width="12" height="220" fill="#cfe2ff"/><rect x="1056" y="0" width="12" height="220" fill="#d9f7f3"/><rect x="1068" y="0" width="12" height="220" fill="#efe3ff"/><rect x="1080" y="0" width="12" height="220" fill="#cfe2ff"/><rect x="1092" y="0" width="12" height="220" fill="#d9f7f3"/><rect x="1104" y="0" width="12" height="220" fill="#efe3ff"/><rect x="1116" y="0" width="12" height="220" fill="#cfe2ff"/><rect x="1128" y="0" width="12" height="220" fill="#d9f7f3"/><rect x="1140" y="0" width="12" height="220" fill="#efe3ff"/><rect x="1152" y="0" width="12" height="220" fill="#cfe2ff"/><rect x="1164" y="0" width="12" height="220" fill="#d9f7f3"/><rect x="1176" y="0" width="12" height="220" fill="#efe3ff"/><rect x="1188" y="0" width="12" height="220" fill="#cfe2ff"/><rect x="1200" y="0" width="12" height="220" fill="#d9f7f3"/><rect x="1212" y="0" width="12" height="220" fill="#efe3ff"/><rect x="1224" y="0" width="12" height="220" fill="#cfe2ff"/><rect x="1236" y="0" width="12" height="220" fill="#d9f7f3"/><rect x="1248" y="0" width="12" height="220" fill="#efe3ff"/><rect x="1260" y="0" width="12" height="220" fill="#cfe2ff"/><rect x="1272" y="0" width="12" height="220" fill="#d9f7f3"/><rect x="1284" y="0" width="12" height="220" fill="#efe3ff"/><rect x="1296" y="0" width="12" height="220" fill="#cfe2ff"/><rect x="1308" y="0" width="12" height="220" fill="#d9f7f3"/><rect x="1320" y="0" width="12" height="220" fill="#efe3ff"/><rect x="1332" y="0" width="12" height="220" fill="#cfe2ff"/><rect x="1344" y="0" width="12" height="220" fill="#d9f7f3"/><rect x="1356" y="0" width="12" height="220" fill="#efe3ff"/><rect x="1368" y="0" width="12" height="220" fill="#cfe2ff"/><rect x="1380" y="0" width="12" height="220" fill="#d9f7f3"/><rect x="1392" y="0" width="12" height="220" fill="#efe3ff"/><rect x="1404" y="0" width="12" height="220" fill="#cfe2ff"/><rect x="1416" y="0" width="12" height="220" fill="#d9f7f3"/><rect x="1428" y="0" width="12" height="220" fill="#efe3ff"/><rect x="1440" y="0" width="12" height="220" fill="#cfe2ff"/><rect x="1452" y="0" width="12" height="220" fill="#d9f7f3"/><rect x="1464" y="0" width="12" height="220" fill="#efe3ff"/><rect x="1476" y="0" width="12" height="220" fill="#cfe2ff"/><rect x="1488" y="0" width="12" height="220" fill="#d9f7f3"/><rect x="1500" y="0" width="12" height="220" fill="#efe3ff"/><rect x="1512" y="0" width="12" height="220" fill="#cfe2ff"/><rect x="1524" y="0" width="12" height="220" fill="#d9f7f3"/><rect x="1536" y="0" width="12" height="220" fill="#efe3ff"/><rect x="1548" y="0" width="12" height="220" fill="#cfe2ff"/><rect x="1560" y="0" width="12" height="220" fill="#d9f7f3"/><rect x="1572" y="0" width="12" height="220" fill="#efe3ff"/><rect x="1584" y="0" width="12" height="220" fill="#cfe2ff"/><rect x="1596" y="0" width="12" height="220" fill="#d9f7f3"/><rect x="1608" y="0" width="12" height="220" fill="#efe3ff"/><rect x="1620" y="0" width="12" height="220" fill="#cfe2ff"/><rect x="1632" y="0" width="12" height="220" fill="#d9f7f3"/><rect x="1644" y="0" width="12" height="220" fill="#efe3ff"/><rect x="1656" y="0" width="12" height="220" fill="#cfe2ff"/><rect x="1668" y="0" width="12" height="220" fill="#d9f7f3"/><rect x="1680" y="0" width="12" height="220" fill="#efe3ff"/><rect x="1692" y="0" width="12" height="220" fill="#cfe2ff"/><rect x="1704" y="0" width="12" height="220" fill="#d9f7f3"/><rect x="1716" y="0" width="12" height="220" fill="#efe3ff"/><rect x="1728" y="0" width="12" height="220" fill="#cfe2ff"/><rect x="1740" y="0" width="12" height="220" fill="#d9f7f3"/><rect x="1752" y="0" width="12" height="220" fill="#efe3ff"/><rect x="1764" y="0" width="12" height="220" fill="#cfe2ff"/><rect x="1776" y="0" width="12" height="220" fill="#d9f7f3"/><rect x="1788" y="0" width="12" height="220" fill="#efe3ff"/>
  </g>
</svg>
