<svg xmlns="http://www.w3.org/2000/svg" viewBox="0 0 1800 900" preserveAspectRatio="none">
  <rect width="1800" height="900" fill="#ffffff" />
  <g opacity="0.18">
    <rect x="0" y="0" width="12" height="900" fill="#2563eb" /><rect x="12" y="0" width="14" height="900" fill="#14b8a6" /><rect x="26" y="0" width="12" height="900" fill="#7c3aed" /><rect x="38" y="0" width="11" height="900" fill="#0ea5e9" /><rect x="54" y="0" width="11" height="900" fill="#2563eb" /><rect x="65" y="0" width="10" height="900" fill="#14b8a6" /><rect x="75" y="0" width="11" height="900" fill="#7c3aed" /><rect x="86" y="0" width="14" height="900" fill="#0ea5e9" /><rect x="100" y="0" width="14" height="900" fill="#2563eb" /><rect x="114" y="0" width="14" height="900" fill="#14b8a6" /><rect x="128" y="0" width="12" height="900" fill="#7c3aed" /><rect x="140" y="0" width="14" height="900" fill="#0ea5e9" /><rect x="154" y="0" width="14" height="900" fill="#2563eb" /><rect x="168" y="0" width="14" height="900" fill="#14b8a6" /><rect x="182" y="0" width="11" height="900" fill="#7c3aed" /><rect x="193" y="0" width="14" height="900" fill="#0ea5e9" /><rect x="207" y="0" width="12" height="900" fill="#2563eb" /><rect x="225" y="0" width="13" height="900" fill="#14b8a6" /><rect x="238" y="0" width="13" height="900" fill="#7c3aed" /><rect x="251" y="0" width="11" height="900" fill="#0ea5e9" /><rect x="262" y="0" width="13" height="900" fill="#2563eb" /><rect x="275" y="0" width="10" height="900" fill="#14b8a6" /><rect x="285" y="0" width="13" height="900" fill="#7c3aed" /><rect x="298" y="0" width="13" height="900" fill="#0ea5e9" /><rect x="311" y="0" width="12" height="900" fill="#2563eb" /><rect x="325" y="0" width="11" height="900" fill="#14b8a6" /><rect x="336" y="0" width="10" height="900" fill="#7c3aed" /><rect x="346" y="0" width="10" height="900" fill="#0ea5e9" /><rect x="356" y="0" width="12" height="900" fill="#2563eb" /><rect x="368" y="0" width="10" height="900" fill="#14b8a6" /><rect x="378" y="0" width="12" height="900" fill="#7c3aed" /><rect x="390" y="0" width="14" height="900" fill="#0ea5e9" /><rect x="404" y="0" width="11" height="900" fill="#2563eb" /><rect x="415" y="0" width="12" height="900" fill="#14b8a6" /><rect x="427" y="0" width="10" height="900" fill="#7c3aed" /><rect x="437" y="0" width="14" height="900" fill="#0ea5e9" /><rect x="451" y="0" width="14" height="900" fill="#2563eb" /><rect x="465" y="0" width="13" height="900" fill="#14b8a6" /><rect x="478" y="0" width="13" height="900" fill="#7c3aed" /><rect x="491" y="0" width="14" height="900" fill="#0ea5e9" /><rect x="511" y="0" width="11" height="900" fill="#2563eb" /><rect x="522" y="0" width="11" height="900" fill="#14b8a6" /><rect x="533" y="0" width="12" height="900" fill="#7c3aed" /><rect x="550" y="0" width="14" height="900" fill="#0ea5e9" /><rect x="570" y="0" width="10" height="900" fill="#2563eb" /><rect x="580" y="0" width="10" height="900" fill="#14b8a6" /><rect x="590" y="0" width="12" height="900" fill="#7c3aed" /><rect x="602" y="0" width="12" height="900" fill="#0ea5e9" /><rect x="614" y="0" width="11" height="900" fill="#2563eb" /><rect x="625" y="0" width="12" height="900" fill="#14b8a6" /><rect x="637" y="0" width="14" height="900" fill="#7c3aed" /><rect x="651" y="0" width="10" height="900" fill="#0ea5e9" /><rect x="661" y="0" width="11" height="900" fill="#2563eb" /><rect x="672" y="0" width="12" height="900" fill="#14b8a6" /><rect x="684" y="0" width="13" height="900" fill="#7c3aed" /><rect x="697" y="0" width="10" height="900" fill="#0ea5e9" /><rect x="707" y="0" width="13" height="900" fill="#2563eb" /><rect x="720" y="0" width="12" height="900" fill="#14b8a6" /><rect x="732" y="0" width="14" height="900" fill="#7c3aed" /><rect x="746" y="0" width="13" height="900" fill="#0ea5e9" /><rect x="759" y="0" width="13" height="900" fill="#2563eb" /><rect x="772" y="0" width="11" height="900" fill="#14b8a6" /><rect x="783" y="0" width="14" height="900" fill="#7c3aed" /><rect x="797" y="0" width="10" height="900" fill="#0ea5e9" /><rect x="807" y="0" width="11" height="900" fill="#2563eb" /><rect x="818" y="0" width="11" height="900" fill="#14b8a6" /><rect x="829" y="0" width="10" height="900" fill="#7c3aed" /><rect x="839" y="0" width="14" height="900" fill="#0ea5e9" /><rect x="853" y="0" width="11" height="900" fill="#2563eb" /><rect x="864" y="0" width="14" height="900" fill="#14b8a6" /><rect x="878" y="0" width="14" height="900" fill="#7c3aed" /><rect x="892" y="0" width="10" height="900" fill="#0ea5e9" /><rect x="902" y="0" width="14" height="900" fill="#2563eb" /><rect x="916" y="0" width="13" height="900" fill="#14b8a6" /><rect x="929" y="0" width="11" height="900" fill="#7c3aed" /><rect x="940" y="0" width="14" height="900" fill="#0ea5e9" /><rect x="954" y="0" width="14" height="900" fill="#2563eb" /><rect x="968" y="0" width="11" height="900" fill="#14b8a6" /><rect x="979" y="0" width="10" height="900" fill="#7c3aed" /><rect x="989" y="0" width="12" height="900" fill="#0ea5e9" /><rect x="1006" y="0" width="10" height="900" fill="#2563eb" /><rect x="1016" y="0" width="14" height="900" fill="#14b8a6" /><rect x="1030" y="0" width="13" height="900" fill="#7c3aed" /><rect x="1043" y="0" width="11" height="900" fill="#0ea5e9" /><rect x="1056" y="0" width="14" height="900" fill="#2563eb" /><rect x="1070" y="0" width="10" height="900" fill="#14b8a6" /><rect x="1080" y="0" width="13" height="900" fill="#7c3aed" /><rect x="1097" y="0" width="14" height="900" fill="#0ea5e9" /><rect x="1111" y="0" width="14" height="900" fill="#2563eb" /><rect x="1125" y="0" width="10" height="900" fill="#14b8a6" /><rect x="1137" y="0" width="14" height="900" fill="#7c3aed" /><rect x="1151" y="0" width="12" height="900" fill="#0ea5e9" /><rect x="1163" y="0" width="13" height="900" fill="#2563eb" /><rect x="1176" y="0" width="10" height="900" fill="#14b8a6" /><rect x="1186" y="0" width="11" height="900" fill="#7c3aed" /><rect x="1197" y="0" width="12" height="900" fill="#0ea5e9" /><rect x="1209" y="0" width="11" height="900" fill="#2563eb" /><rect x="1220" y="0" width="10" height="900" fill="#14b8a6" /><rect x="1230" y="0" width="10" height="900" fill="#7c3aed" /><rect x="1240" y="0" width="10" height="900" fill="#0ea5e9" /><rect x="1250" y="0" width="12" height="900" fill="#2563eb" /><rect x="1262" y="0" width="12" height="900" fill="#14b8a6" /><rect x="1274" y="0" width="11" height="900" fill="#7c3aed" /><rect x="1291" y="0" width="11" height="900" fill="#0ea5e9" /><rect x="1302" y="0" width="12" height="900" fill="#2563eb" /><rect x="1314" y="0" width="11" height="900" fill="#14b8a6" /><rect x="1325" y="0" width="10" height="900" fill="#7c3aed" /><rect x="1335" y="0" width="14" height="900" fill="#0ea5e9" /><rect x="1349" y="0" width="10" height="900" fill="#2563eb" /><rect x="1359" y="0" width="11" height="900" fill="#14b8a6" /><rect x="1370" y="0" width="11" height="900" fill="#7c3aed" /><rect x="1381" y="0" width="10" height="900" fill="#0ea5e9" /><rect x="1391" y="0" width="12" height="900" fill="#2563eb" /><rect x="1409" y="0" width="14" height="900" fill="#14b8a6" /><rect x="1429" y="0" width="12" height="900" fill="#7c3aed" /><rect x="1441" y="0" width="14" height="900" fill="#0ea5e9" /><rect x="1455" y="0" width="11" height="900" fill="#2563eb" /><rect x="1471" y="0" width="10" height="900" fill="#14b8a6" /><rect x="1481" y="0" width="10" height="900" fill="#7c3aed" /><rect x="1491" y="0" width="12" height="900" fill="#0ea5e9" /><rect x="1503" y="0" width="10" height="900" fill="#2563eb" /><rect x="1513" y="0" width="13" height="900" fill="#14b8a6" /><rect x="1526" y="0" width="12" height="900" fill="#7c3aed" /><rect x="1538" y="0" width="11" height="900" fill="#0ea5e9" /><rect x="1549" y="0" width="11" height="900" fill="#2563eb" /><rect x="1560" y="0" width="14" height="900" fill="#14b8a6" /><rect x="1574" y="0" width="12" height="900" fill="#7c3aed" /><rect x="1588" y="0" width="11" height="900" fill="#0ea5e9" /><rect x="1604" y="0" width="10" height="900" fill="#2563eb" /><rect x="1614" y="0" width="10" height="900" fill="#14b8a6" /><rect x="1624" y="0" width="12" height="900" fill="#7c3aed" /><rect x="1636" y="0" width="10" height="900" fill="#0ea5e9" /><rect x="1646" y="0" width="13" height="900" fill="#2563eb" /><rect x="1659" y="0" width="14" height="900" fill="#14b8a6" /><rect x="1673" y="0" width="11" height="900" fill="#7c3aed" /><rect x="1684" y="0" width="11" height="900" fill="#0ea5e9" /><rect x="1695" y="0" width="10" height="900" fill="#2563eb" /><rect x="1705" y="0" width="12" height="900" fill="#14b8a6" /><rect x="1717" y="0" width="14" height="900" fill="#7c3aed" /><rect x="1731" y="0" width="13" height="900" fill="#0ea5e9" /><rect x="1744" y="0" width="14" height="900" fill="#2563eb" /><rect x="1758" y="0" width="11" height="900" fill="#14b8a6" /><rect x="1769" y="0" width="13" height="900" fill="#7c3aed" /><rect x="1782" y="0" width="11" height="900" fill="#0ea5e9" /><rect x="1793" y="0" width="11" height="900" fill="#2563eb" />
  </g>
</svg>