<svg xmlns="http://www.w3.org/2000/svg" viewBox="0 0 800 500" preserveAspectRatio="none">
  <rect width="800" height="500" fill="#ffffff"/>
  <g opacity="0.1">
    <rect x="0" y="0" width="12" height="500" fill="#cfe2ff"/><rect x="12" y="0" width="10" height="500" fill="#d9f7f3"/><rect x="22" y="0" width="11" height="500" fill="#efe3ff"/><rect x="38" y="0" width="8" height="500" fill="#cfe2ff"/><rect x="46" y="0" width="9" height="500" fill="#d9f7f3"/><rect x="55" y="0" width="9" height="500" fill="#efe3ff"/><rect x="64" y="0" width="10" height="500" fill="#cfe2ff"/><rect x="74" y="0" width="10" height="500" fill="#d9f7f3"/><rect x="84" y="0" width="9" height="500" fill="#efe3ff"/><rect x="93" y="0" width="11" height="500" fill="#cfe2ff"/><rect x="104" y="0" width="9" height="500" fill="#d9f7f3"/><rect x="113" y="0" width="10" height="500" fill="#efe3ff"/><rect x="123" y="0" width="11" height="500" fill="#cfe2ff"/><rect x="134" y="0" width="10" height="500" fill="#d9f7f3"/><rect x="144" y="0" width="11" height="500" fill="#efe3ff"/><rect x="155" y="0" width="8" height="500" fill="#cfe2ff"/><rect x="163" y="0" width="11" height="500" fill="#d9f7f3"/><rect x="174" y="0" width="11" height="500" fill="#efe3ff"/><rect x="185" y="0" width="10" height="500" fill="#cfe2ff"/><rect x="195" y="0" width="10" height="500" fill="#d9f7f3"/><rect x="205" y="0" width="10" height="500" fill="#efe3ff"/><rect x="215" y="0" width="10" height="500" fill="#cfe2ff"/><rect x="225" y="0" width="9" height="500" fill="#d9f7f3"/><rect x="234" y="0" width="11" height="500" fill="#efe3ff"/><rect x="245" y="0" width="11" height="500" fill="#cfe2ff"/><rect x="256" y="0" width="9" height="500" fill="#d9f7f3"/><rect x="270" y="0" width="9" height="500" fill="#efe3ff"/><rect x="279" y="0" width="12" height="500" fill="#cfe2ff"/><rect x="291" y="0" width="8" height="500" fill="#d9f7f3"/><rect x="299" y="0" width="9" height="500" fill="#efe3ff"/><rect x="308" y="0" width="9" height="500" fill="#cfe2ff"/><rect x="317" y="0" width="10" height="500" fill="#d9f7f3"/><rect x="327" y="0" width="12" height="500" fill="#efe3ff"/><rect x="339" y="0" width="12" height="500" fill="#cfe2ff"/><rect x="351" y="0" width="10" height="500" fill="#d9f7f3"/><rect x="361" y="0" width="9" height="500" fill="#efe3ff"/><rect x="370" y="0" width="10" height="500" fill="#cfe2ff"/><rect x="380" y="0" width="11" height="500" fill="#d9f7f3"/><rect x="391" y="0" width="10" height="500" fill="#efe3ff"/><rect x="401" y="0" width="11" height="500" fill="#cfe2ff"/><rect x="412" y="0" width="11" height="500" fill="#d9f7f3"/><rect x="423" y="0" width="11" height="500" fill="#efe3ff"/><rect x="434" y="0" width="12" height="500" fill="#cfe2ff"/><rect x="446" y="0" width="8" height="500" fill="#d9f7f3"/><rect x="454" y="0" width="12" height="500" fill="#efe3ff"/><rect x="466" y="0" width="8" height="500" fill="#cfe2ff"/><rect x="479" y="0" width="10" height="500" fill="#d9f7f3"/><rect x="491" y="0" width="9" height="500" fill="#efe3ff"/><rect x="500" y="0" width="10" height="500" fill="#cfe2ff"/><rect x="510" y="0" width="8" height="500" fill="#d9f7f3"/><rect x="518" y="0" width="9" height="500" fill="#efe3ff"/><rect x="527" y="0" width="10" height="500" fill="#cfe2ff"/><rect x="537" y="0" width="10" height="500" fill="#d9f7f3"/><rect x="547" y="0" width="9" height="500" fill="#efe3ff"/><rect x="556" y="0" width="8" height="500" fill="#cfe2ff"/><rect x="564" y="0" width="10" height="500" fill="#d9f7f3"/><rect x="574" y="0" width="8" height="500" fill="#efe3ff"/><rect x="582" y="0" width="8" height="500" fill="#cfe2ff"/><rect x="590" y="0" width="11" height="500" fill="#d9f7f3"/><rect x="601" y="0" width="10" height="500" fill="#efe3ff"/><rect x="611" y="0" width="10" height="500" fill="#cfe2ff"/><rect x="621" y="0" width="9" height="500" fill="#d9f7f3"/><rect x="630" y="0" width="11" height="500" fill="#efe3ff"/><rect x="641" y="0" width="9" height="500" fill="#cfe2ff"/><rect x="650" y="0" width="11" height="500" fill="#d9f7f3"/><rect x="661" y="0" width="9" height="500" fill="#efe3ff"/><rect x="674" y="0" width="11" height="500" fill="#cfe2ff"/><rect x="685" y="0" width="12" height="500" fill="#d9f7f3"/><rect x="697" y="0" width="11" height="500" fill="#efe3ff"/><rect x="708" y="0" width="9" height="500" fill="#cfe2ff"/><rect x="722" y="0" width="12" height="500" fill="#d9f7f3"/><rect x="734" y="0" width="10" height="500" fill="#efe3ff"/><rect x="744" y="0" width="12" height="500" fill="#cfe2ff"/><rect x="756" y="0" width="12" height="500" fill="#d9f7f3"/><rect x="768" y="0" width="8" height="500" fill="#efe3ff"/><rect x="776" y="0" width="9" height="500" fill="#cfe2ff"/><rect x="785" y="0" width="12" height="500" fill="#d9f7f3"/><rect x="797" y="0" width="8" height="500" fill="#efe3ff"/>
  </g>
</svg>
