<svg xmlns="http://www.w3.org/2000/svg" viewBox="0 0 800 500" preserveAspectRatio="none">
  <rect width="800" height="500" fill="#ffffff" />
  <g opacity="0.14">
    <rect x="0" y="0" width="7" height="500" fill="#2563eb" /><rect x="7" y="0" width="7" height="500" fill="#14b8a6" /><rect x="14" y="0" width="6" height="500" fill="#7c3aed" /><rect x="20" y="0" width="6" height="500" fill="#2563eb" /><rect x="26" y="0" width="8" height="500" fill="#14b8a6" /><rect x="34" y="0" width="10" height="500" fill="#7c3aed" /><rect x="44" y="0" width="8" height="500" fill="#2563eb" /><rect x="52" y="0" width="10" height="500" fill="#14b8a6" /><rect x="62" y="0" width="6" height="500" fill="#7c3aed" /><rect x="68" y="0" width="7" height="500" fill="#2563eb" /><rect x="75" y="0" width="7" height="500" fill="#14b8a6" /><rect x="82" y="0" width="6" height="500" fill="#7c3aed" /><rect x="94" y="0" width="6" height="500" fill="#2563eb" /><rect x="103" y="0" width="7" height="500" fill="#14b8a6" /><rect x="110" y="0" width="9" height="500" fill="#7c3aed" /><rect x="121" y="0" width="10" height="500" fill="#2563eb" /><rect x="131" y="0" width="8" height="500" fill="#14b8a6" /><rect x="139" y="0" width="10" height="500" fill="#7c3aed" /><rect x="149" y="0" width="9" height="500" fill="#2563eb" /><rect x="158" y="0" width="10" height="500" fill="#14b8a6" /><rect x="170" y="0" width="8" height="500" fill="#7c3aed" /><rect x="178" y="0" width="10" height="500" fill="#2563eb" /><rect x="188" y="0" width="9" height="500" fill="#14b8a6" /><rect x="203" y="0" width="7" height="500" fill="#7c3aed" /><rect x="210" y="0" width="6" height="500" fill="#2563eb" /><rect x="216" y="0" width="6" height="500" fill="#14b8a6" /><rect x="222" y="0" width="10" height="500" fill="#7c3aed" /><rect x="235" y="0" width="9" height="500" fill="#2563eb" /><rect x="244" y="0" width="9" height="500" fill="#14b8a6" /><rect x="256" y="0" width="9" height="500" fill="#7c3aed" /><rect x="265" y="0" width="10" height="500" fill="#2563eb" /><rect x="275" y="0" width="10" height="500" fill="#14b8a6" /><rect x="285" y="0" width="7" height="500" fill="#7c3aed" /><rect x="292" y="0" width="8" height="500" fill="#2563eb" /><rect x="300" y="0" width="6" height="500" fill="#14b8a6" /><rect x="306" y="0" width="8" height="500" fill="#7c3aed" /><rect x="314" y="0" width="7" height="500" fill="#2563eb" /><rect x="321" y="0" width="7" height="500" fill="#14b8a6" /><rect x="328" y="0" width="10" height="500" fill="#7c3aed" /><rect x="338" y="0" width="9" height="500" fill="#2563eb" /><rect x="347" y="0" width="7" height="500" fill="#14b8a6" /><rect x="354" y="0" width="8" height="500" fill="#7c3aed" /><rect x="362" y="0" width="6" height="500" fill="#2563eb" /><rect x="368" y="0" width="8" height="500" fill="#14b8a6" /><rect x="376" y="0" width="8" height="500" fill="#7c3aed" /><rect x="384" y="0" width="7" height="500" fill="#2563eb" /><rect x="391" y="0" width="8" height="500" fill="#14b8a6" /><rect x="399" y="0" width="10" height="500" fill="#7c3aed" /><rect x="409" y="0" width="9" height="500" fill="#2563eb" /><rect x="418" y="0" width="6" height="500" fill="#14b8a6" /><rect x="427" y="0" width="7" height="500" fill="#7c3aed" /><rect x="434" y="0" width="6" height="500" fill="#2563eb" /><rect x="440" y="0" width="9" height="500" fill="#14b8a6" /><rect x="451" y="0" width="7" height="500" fill="#7c3aed" /><rect x="460" y="0" width="8" height="500" fill="#2563eb" /><rect x="468" y="0" width="7" height="500" fill="#14b8a6" /><rect x="475" y="0" width="6" height="500" fill="#7c3aed" /><rect x="481" y="0" width="10" height="500" fill="#2563eb" /><rect x="491" y="0" width="9" height="500" fill="#14b8a6" /><rect x="500" y="0" width="7" height="500" fill="#7c3aed" /><rect x="507" y="0" width="6" height="500" fill="#2563eb" /><rect x="513" y="0" width="10" height="500" fill="#14b8a6" /><rect x="523" y="0" width="8" height="500" fill="#7c3aed" /><rect x="531" y="0" width="8" height="500" fill="#2563eb" /><rect x="539" y="0" width="10" height="500" fill="#14b8a6" /><rect x="549" y="0" width="10" height="500" fill="#7c3aed" /><rect x="559" y="0" width="10" height="500" fill="#2563eb" /><rect x="575" y="0" width="9" height="500" fill="#14b8a6" /><rect x="584" y="0" width="10" height="500" fill="#7c3aed" /><rect x="594" y="0" width="6" height="500" fill="#2563eb" /><rect x="600" y="0" width="10" height="500" fill="#14b8a6" /><rect x="610" y="0" width="8" height="500" fill="#7c3aed" /><rect x="618" y="0" width="10" height="500" fill="#2563eb" /><rect x="628" y="0" width="8" height="500" fill="#14b8a6" /><rect x="636" y="0" width="6" height="500" fill="#7c3aed" /><rect x="648" y="0" width="10" height="500" fill="#2563eb" /><rect x="658" y="0" width="9" height="500" fill="#14b8a6" /><rect x="667" y="0" width="9" height="500" fill="#7c3aed" /><rect x="676" y="0" width="6" height="500" fill="#2563eb" /><rect x="682" y="0" width="6" height="500" fill="#14b8a6" /><rect x="688" y="0" width="7" height="500" fill="#7c3aed" /><rect x="695" y="0" width="7" height="500" fill="#2563eb" /><rect x="702" y="0" width="10" height="500" fill="#14b8a6" /><rect x="712" y="0" width="9" height="500" fill="#7c3aed" /><rect x="721" y="0" width="6" height="500" fill="#2563eb" /><rect x="727" y="0" width="10" height="500" fill="#14b8a6" /><rect x="737" y="0" width="9" height="500" fill="#7c3aed" /><rect x="746" y="0" width="10" height="500" fill="#2563eb" /><rect x="756" y="0" width="7" height="500" fill="#14b8a6" /><rect x="763" y="0" width="6" height="500" fill="#7c3aed" /><rect x="771" y="0" width="10" height="500" fill="#2563eb" /><rect x="781" y="0" width="6" height="500" fill="#14b8a6" /><rect x="787" y="0" width="9" height="500" fill="#7c3aed" /><rect x="796" y="0" width="7" height="500" fill="#2563eb" />
  </g>
</svg>